<svg xmlns="http://www.w3.org/2000/svg" viewBox="0 0 58 75"><defs><style>.cls-1{fill:#fec92c;}.cls-2{fill:#8ebf22;}</style></defs><g id="Слой_2" data-name="Слой 2"><g id="icons"><g id="ball_ball" data-name="ball ball"><path class="cls-1" d="M58,46c0,.86,0,1.72-.12,2.57-.29-1-.55-2.13-.75-3-.84-3.7-1.64-7.21-4.41-7.21s-3.56,3.51-4.41,7.21c-.22,1-.54,2.39-.87,3.4-.33-1-.65-2.42-.87-3.4-.84-3.7-1.64-7.21-4.41-7.21s-3.56,3.51-4.4,7.21c-.22,1-.54,2.38-.87,3.39-.33-1-.64-2.41-.87-3.39-.84-3.7-1.63-7.21-4.4-7.21s-3.56,3.51-4.4,7.21c-.22,1-.54,2.38-.87,3.39-.33-1-.64-2.41-.87-3.39-.84-3.7-1.63-7.21-4.4-7.21s-3.56,3.51-4.4,7.21c-.22,1-.54,2.38-.87,3.39-.33-1-.65-2.41-.87-3.39-.84-3.7-1.64-7.21-4.4-7.21S7,41.89,6.14,45.59c-.23,1-.54,2.38-.87,3.39-.33-1-.64-2.41-.87-3.39-.73-3.21-1.43-6.27-3.4-7a28.8,28.8,0,0,1,2-5.26h52.1A28.71,28.71,0,0,1,58,46Z"/><path class="cls-1" d="M57,53.43a28,28,0,0,1-2,5.25H3A28.83,28.83,0,0,1,0,46c0-.87.05-1.72.13-2.56.28,1,.54,2.11.74,3,.84,3.71,1.64,7.21,4.4,7.21s3.56-3.5,4.4-7.21c.22-1,.54-2.38.87-3.39.33,1,.64,2.41.87,3.39.84,3.71,1.63,7.21,4.4,7.21s3.56-3.5,4.4-7.21c.22-1,.54-2.38.87-3.39.33,1,.65,2.41.87,3.39.84,3.71,1.64,7.21,4.4,7.21s3.56-3.5,4.4-7.21c.23-1,.54-2.38.87-3.39.33,1,.65,2.41.87,3.39.84,3.71,1.64,7.21,4.4,7.21s3.56-3.5,4.41-7.21c.22-1,.54-2.38.86-3.39.34,1,.65,2.41.87,3.39.85,3.71,1.64,7.21,4.41,7.21s3.56-3.5,4.41-7.21c.22-1,.54-2.39.87-3.4.33,1,.65,2.42.88,3.4C54.33,49.62,55,52.67,57,53.43Z"/><path class="cls-2" d="M5,62.31H53a29,29,0,0,1-48,0Z"/><path class="cls-2" d="M38.07,18.44V9.06a9.07,9.07,0,0,0-18.13,0v9.38A29.16,29.16,0,0,0,5,29.68H53A29.14,29.14,0,0,0,38.07,18.44ZM24.12,9.06a4.88,4.88,0,0,1,9.76,0Z"/></g></g></g></svg>