<?xml version="1.0" encoding="utf-8"?>
<!-- Generator: Adobe Illustrator 26.1.0, SVG Export Plug-In . SVG Version: 6.00 Build 0)  -->
<svg version="1.1" id="Слой_1" xmlns="http://www.w3.org/2000/svg" xmlns:xlink="http://www.w3.org/1999/xlink" x="0px" y="0px"
	 viewBox="0 0 42.8 62.1" style="enable-background:new 0 0 42.8 62.1;" xml:space="preserve">
<style type="text/css">
	.st0{fill:#FEC92C;}
</style>
<path id="bell" class="st0" d="M27.1,56.5c0,0.1,0,0.1,0,0.2c-0.3,3-3.1,5.2-6.1,4.8c-2.7-0.3-4.8-2.6-4.9-5.3
	C19.8,56.5,23.4,56.6,27.1,56.5z M22.7,55.2l-1.7,0C-3.6,54.8-1.4,48,2.2,44.6S6.4,33.3,6.6,20c0.1-7.6,5-10.8,9.2-12.2
	c-0.2-0.6-0.2-1.1-0.2-1.7c-0.1-3.3,2.6-6,5.9-6.1c3.3-0.1,6,2.6,6.1,5.9c0,0.6-0.1,1.3-0.3,1.9c4.3,1.4,9.5,4.8,9.4,12.7
	c-0.2,13.4,0.1,21.1,3.6,24.7c2.9,3,4.8,8.4-9.6,9.7l0,0c-0.5,0.1-1.1,0.1-1.7,0.1l-0.1,0C27.1,55.1,25,55.1,22.7,55.2L22.7,55.2z
	 M19,5.7c0.9-0.2,1.9-0.2,2.8-0.3c0.7,0,1.5,0.1,2.2,0.2c0.1-0.2,0.1-0.5,0.1-0.7c0-1.5-1.2-2.7-2.6-2.7c-1.5,0-2.7,1.2-2.7,2.6l0,0
	C18.8,5.1,18.9,5.4,19,5.7z M19.4,10.9c-0.3-0.1-0.5-0.3-0.8-0.4c-0.9,0.2-1.7,0.5-2.6,0.9c-3.4,1.5-5.1,4.1-5.1,8
	C10.7,32.8,10.2,42,5.3,46.7c-0.3,0.3-0.6,0.6-0.8,1c0.9,0.6,1.9,1,3,1.2c0.4-1.2,1.1-2.2,2-3c3.6-3.5,4.2-11.2,4.4-24.6
	C13.9,16,16.4,12.8,19.4,10.9z"/>
</svg>
