<svg xmlns="http://www.w3.org/2000/svg" viewBox="0 0 58.26 75"><defs><style>.cls-1{fill:#fff;}.cls-2{fill:#c6c3c2;}.cls-3{fill:#cd6116;}</style></defs><g id="Слой_2" data-name="Слой 2"><g id="icons"><g id="brandy"><g id="glass"><path class="cls-1" d="M58.26,26.38C58.26,8,52.05.53,52.05.53A1.69,1.69,0,0,0,50.92,0H7.34A1.67,1.67,0,0,0,6.21.53S0,8,0,26.38C0,51.83,25.69,51.84,25.69,51.84a.69.69,0,0,1,.69.68v8.26a1.62,1.62,0,0,1-.54,1.11l-14,11.16c-.32.19-.28.37.09.41,0,0,2.78,1.54,17.21,1.54s17.2-1.54,17.2-1.54c.38,0,.42-.22.09-.41l-14-11.16a1.58,1.58,0,0,1-.54-1.11V52.52a.69.69,0,0,1,.69-.68S58.26,51.83,58.26,26.38Z"/><path class="cls-2" d="M48.67,5.5c1.44,2.77,4.08,9.4,4.08,20.88,0,8.28-3.1,13.91-9.49,17.2a27,27,0,0,1-10.69,2.75,6.16,6.16,0,0,0-3.44,1.05,6.18,6.18,0,0,0-3.44-1.05,26.81,26.81,0,0,1-10.4-2.61C8.7,40.46,5.5,34.78,5.5,26.38,5.5,14.9,8.15,8.27,9.59,5.5H48.67M29.13,66.31l3.94,3.14c-1.19,0-2.5,0-3.94,0s-2.75,0-3.95,0l3.95-3.14M50.92,0H7.34A1.67,1.67,0,0,0,6.21.53S0,8,0,26.38C0,51.83,25.69,51.84,25.69,51.84a.69.69,0,0,1,.69.68v8.26a1.62,1.62,0,0,1-.54,1.11l-14,11.16c-.32.19-.28.37.09.41,0,0,2.78,1.54,17.21,1.54s17.2-1.54,17.2-1.54c.38,0,.42-.22.09-.41l-14-11.16a1.58,1.58,0,0,1-.54-1.11V52.52a.69.69,0,0,1,.69-.68s25.69,0,25.69-25.46C58.26,8,52.05.53,52.05.53A1.69,1.69,0,0,0,50.92,0Z"/></g><path id="drink" class="cls-3" d="M29.13,22.3c-5.38,0-10.27.23-13.94.59a15.79,15.79,0,0,0,2.65,8c2.16,2.93,5.57,4.35,10.41,4.35a2.07,2.07,0,0,1,0,4.13c-6.16,0-10.78-2-13.73-6a19.76,19.76,0,0,1-3.42-9.92c-1.66.32-2.61.69-2.61,1.08v.63c0,18,18.68,18,18.68,18h3.9s18.68,0,18.68-18v-.63C49.77,23.3,40.53,22.3,29.13,22.3Z"/></g></g></g></svg>