<svg xmlns="http://www.w3.org/2000/svg" viewBox="0 0 63.19 75"><defs><style>.cls-1{fill:#da2b18;}</style></defs><g id="Слой_2" data-name="Слой 2"><g id="icons"><path id="candy" class="cls-1" d="M60.82,36.57a6.23,6.23,0,0,1-4,3.63c-.1,0-.19.07-.29.09a4.52,4.52,0,0,1-.62.12,5,5,0,0,1-.54.06l-.53,0a5.88,5.88,0,0,1-.71-.07,2.87,2.87,0,0,1-.41-.05A7.1,7.1,0,0,1,52.57,40a6.32,6.32,0,0,1-3.46-8.25c.06-.15.13-.34.2-.55a.31.31,0,0,1,0-.08l.22-.68h0a24.77,24.77,0,0,0,1-5.8h0A14.74,14.74,0,0,0,50,19.87a8.75,8.75,0,0,0-.44-1.21,9.13,9.13,0,0,0-3-3.56h0a12.26,12.26,0,0,0-1.61-1,15.27,15.27,0,0,0-2-.88h0c-2.72-1-4.94-1-6.78-.1a6.25,6.25,0,0,0-.87.52l-.2.14a6.61,6.61,0,0,0-.77.63h0q-.36.34-.69.72a1.07,1.07,0,0,0-.14.16c-.22.25-.42.5-.61.76h0A16.23,16.23,0,0,0,31,19.54h0c-.07.18-.11.29-.11.3l-.1.26L27,30.27l-1.89,5.21L21.24,46.22l-1.9,5.21-3.9,10.73-1.9,5.21-1.26,3.48a6.24,6.24,0,0,1-.61,1.21c0,.07-.1.13-.15.2a5.84,5.84,0,0,1-.7.86l-.1.09a6.28,6.28,0,0,1-1,.76h0a6.42,6.42,0,0,1-1.17.59h0a6.3,6.3,0,0,1-8.19-8l2.88-7.9,8.79,7.49L14,60.89,5.16,53.41l3.9-10.73,8.8,7.48L19.75,45,11,37.47l3.9-10.74,8.8,7.49L25.56,29l-8.8-7.49,2.06-5.65A27.12,27.12,0,0,1,21,11.09l8.44,7.19,1-2.77.1-.3a11,11,0,0,1,1-2L24.05,6.85a21.25,21.25,0,0,1,6.53-5.11A19.25,19.25,0,0,1,36.34,0c-1.4,1.31-.72,5.31-.23,9.27,2-.94,4.37-.91,7.24.08A85.16,85.16,0,0,0,42.88.14a25.53,25.53,0,0,1,4.39,1.15l0,0a25.26,25.26,0,0,1,9.25,5.74c-2,.47-4.67,3.34-7.38,5.83A9.62,9.62,0,0,1,51,15.58a14.61,14.61,0,0,1,1.11,3.76c2.52-1.23,6-4.26,8.61-6.55.12.26.27.51.39.77a26.46,26.46,0,0,1,2,12.13c-2-1.17-6.93-.69-11-.89a17.93,17.93,0,0,1-1,3.87,7.1,7.1,0,0,0-.51,2.54c2.42,1.12,7.54,1.32,11.43,1.48A30.19,30.19,0,0,1,60.82,36.57Z"/></g></g></svg>