<svg xmlns="http://www.w3.org/2000/svg" viewBox="0 0 39.67 75"><defs><style>.cls-1{fill:#905d24;}.cls-2{fill:#fff;}.cls-3{fill:#fec92c;}</style></defs><g id="Слой_2" data-name="Слой 2"><g id="icons"><g id="fairylight"><path class="cls-1" d="M14.6,64.41H25.06a1,1,0,0,1,1,1v4.18a1,1,0,0,1-1,1H14.6a1,1,0,0,1-1-1V65.46A1,1,0,0,1,14.6,64.41Z"/><rect class="cls-1" x="15.13" y="71.86" width="9.41" height="3.14" rx="0.64"/><g id="bulb"><path class="cls-2" d="M21.06,23.29c.37.46,9.06,11.45,9.06,22.6,0,6.68-2.43,9.15-4.39,11.14-1.35,1.37-2.24,2.28-2.24,4.46v1.57H16.17V61.49c0-2.18-.89-3.09-2.24-4.46C12,55,9.55,52.57,9.55,45.89c0-11.15,8.69-22.14,9.06-22.6l1.22-1.53Z"/><path class="cls-3" d="M21.06,23.29l-1.23-1.53-1.22,1.53c-.37.46-9.06,11.45-9.06,22.6C9.55,52.57,12,55,13.93,57c1.35,1.37,2.24,2.28,2.24,4.46v1.57h7.32V61.49c0-2.18.89-3.09,2.24-4.46,2-2,4.39-4.46,4.39-11.14C30.12,34.74,21.43,23.75,21.06,23.29Zm2.43,31.55a9.11,9.11,0,0,0-3,5.08h-1.3a9.05,9.05,0,0,0-3-5.08c-1.71-1.75-3.49-3.56-3.49-9,0-7.65,4.83-15.58,7.15-19C22.16,30.3,27,38.22,27,45.89,27,51.28,25.21,53.09,23.49,54.84Z"/></g><g id="shine"><path class="cls-3" d="M19.78,18.2C21,18.2,22,6.31,22,4.06S22,0,19.85,0s-2.17,1.81-2.18,4.05S18.57,18.19,19.78,18.2Z"/><path class="cls-3" d="M39.11,10.48c-1.18-1.09-2.1-.09-3.23,1.13s-6.62,8.23-6,8.83S37.12,15,38.25,13.8,40.3,11.58,39.11,10.48Z"/><path class="cls-3" d="M10,20.29c.63-.61-5-7.49-6.17-8.69s-2.1-2.16-3.26-1-.22,2.1.94,3.29S9.32,20.91,10,20.29Z"/></g></g></g></g></svg>