<svg xmlns="http://www.w3.org/2000/svg" viewBox="0 0 54.88 75"><defs><style>.cls-1{fill:#cd6116;}</style></defs><g id="Слой_2" data-name="Слой 2"><g id="icons"><path id="gingerbread_man" data-name="gingerbread man" class="cls-1" d="M44.46,26.55a8.91,8.91,0,0,1,.23-2c5.06-1.86,8,1.27,8,1.27,3.51,3.51,2.37,6.88-.29,9.67A9,9,0,0,1,44.46,26.55ZM39.93,72c3.25,3,7.22,4.77,11.54.46,2.69-2.69,2.42-6,.86-9.22A10.69,10.69,0,0,0,50.2,63,10.37,10.37,0,0,0,39.93,72Zm-27-57.42A14.53,14.53,0,1,1,33.6,27.68a1,1,0,0,0-1.1-.19L31.05,28a10.7,10.7,0,0,1-3,.51H26.8a10.76,10.76,0,0,1-3-.51l-1.45-.51a1,1,0,0,0-1.1.19A14.53,14.53,0,0,1,12.91,14.53Zm17.66-3.41a3.39,3.39,0,0,0,.07.64.41.41,0,0,0,.41.34h0a.43.43,0,0,0,.41-.34,2.63,2.63,0,0,1,5.18,0,.43.43,0,0,0,.41.34h0a.42.42,0,0,0,.41-.34,3.39,3.39,0,0,0,.07-.64,3.48,3.48,0,0,0-7,0Zm-3.13,5.25c-4.64,0-8.41-.52-8.41,1.57s3.77,6,8.41,6,8.42-3.9,8.42-6S32.09,16.37,27.44,16.37ZM17.28,11.12a3.39,3.39,0,0,0,.07.64.41.41,0,0,0,.41.34h0a.43.43,0,0,0,.41-.34,2.63,2.63,0,0,1,5.18,0,.43.43,0,0,0,.41.34h0a.42.42,0,0,0,.41-.34,3.39,3.39,0,0,0,.07-.64,3.48,3.48,0,0,0-7,0Zm-5,15.43A10.9,10.9,0,0,1,4.24,37.07a43.15,43.15,0,0,0,10.17,5.67l.09,7.49s-.84.6-2.08,1.63c2,1.56,4.71,3.1,6.9,2.22,2.51-1,5.34-5.53,5-20.88l-.52.15-1.45.52a1,1,0,0,1-1.44-1V30a78,78,0,0,1-8.22-4.23l-.44-.25C12.31,25.89,12.33,26.22,12.33,26.55ZM50.2,60.77c.25,0,.5,0,.76,0a41,41,0,0,0-6.4-7.14,11,11,0,0,1-6.27,2.58,5.55,5.55,0,0,1-2.1-.4C31.71,54,29.67,46.58,30,33.07a10.55,10.55,0,0,0-1.88-.23h-.53l-.11,0-.1,0H26.8c-.16,0-.35,0-.55,0C26.56,46.5,24.52,54,20,55.85a5.59,5.59,0,0,1-2.1.4c-2.65,0-5.26-1.71-7-3.14a42.65,42.65,0,0,0-7,7.66H4a12.58,12.58,0,0,1,12.26,9.82C18.6,68,20.47,65.1,21.7,63.86c3.1-3.09,5.74-2.74,5.74-2.74s2.65-.35,5.74,2.74C34.32,65,36,67.61,38.08,70A12.6,12.6,0,0,1,50.2,60.77ZM4,63a9.63,9.63,0,0,0-1.43.11C1,66.34.69,69.69,3.41,72.41c4.06,4,7.81,2.78,11,.07A10.39,10.39,0,0,0,4,63ZM33.94,32.84a1,1,0,0,1-1.44,1l-.64-.23c-.26,15,2.55,19.44,5,20.44,1.94.79,4.32-.34,6.2-1.69-1.59-1.35-2.72-2.16-2.72-2.16l.1-7.49a43.18,43.18,0,0,0,10.16-5.67,10.9,10.9,0,0,1-8.09-10.52c0-.33,0-.66.05-1l-.44.25A78,78,0,0,1,33.94,30Zm-31.74-7c-3.51,3.51-2.37,6.88.29,9.67a9,9,0,0,0,7.94-8.93,8.92,8.92,0,0,0-.24-2C5.13,22.68,2.2,25.81,2.2,25.81Z"/></g></g></svg>