<svg xmlns="http://www.w3.org/2000/svg" viewBox="0 0 65.61 75"><defs><style>.cls-1{fill:#8ebf22;}.cls-2{fill:#da2b18;}</style></defs><g id="Слой_2" data-name="Слой 2"><g id="icons"><g id="holy"><path id="leaves" class="cls-1" d="M65.25,44.2c-.08.09-7.71,9.32-4.83,16a1.55,1.55,0,0,1-2.85,1.22c-2.88-6.7-14.82-7.51-14.94-7.52a1.55,1.55,0,0,1-1.38-2,13.8,13.8,0,0,0,.38-1.64l.33-.18a6.35,6.35,0,0,0,2.17-9.63,37,37,0,0,1-4.53-8c.18-.38.36-.78.52-1.19a10.2,10.2,0,0,0,11.65-4,30.64,30.64,0,0,0,6.78,1.36,1.55,1.55,0,0,1,1.4,2c-.33,1.2-1,4.76-.11,6.79s3.85,3.9,4.94,4.46a1.56,1.56,0,0,1,.8,1.08A1.54,1.54,0,0,1,65.25,44.2ZM40.8,43.08A43.23,43.23,0,0,1,37,36.94h0a26.88,26.88,0,0,1-3.09-9.85,10.11,10.11,0,0,1-.88.71A22.84,22.84,0,0,1,31.84,30c-.91,1.49-1.88,2.95-2.73,4.47q-2.53,4.57-5.23,9c-1.8,3-3.6,6-5.51,8.93-.18.29-.43.4-.54.24a.65.65,0,0,1,0-.5c1-3.35,2.17-6.65,3.3-10s2.33-6.58,3.57-9.83c.34-.89.64-1.79.94-2.7a10.32,10.32,0,0,1-5.57-2.58,42.34,42.34,0,0,1-9.8,1.72,2.14,2.14,0,0,0-1.62.83,2.12,2.12,0,0,0-.37,1.79c.4,1.65,1.14,6.55-.19,9.41S2.71,46,1.26,46.62a2.15,2.15,0,0,0-1.2,1.43,2.12,2.12,0,0,0,.39,1.82C.56,50,10.61,62.94,6.39,72a2.12,2.12,0,1,0,3.84,1.78c4.22-9,20.59-9.65,20.76-9.66a2.11,2.11,0,0,0,1.62-.84,2.15,2.15,0,0,0,.37-1.8c-.41-1.62-1.2-6.42.06-9.1s5.51-5.33,7-6.08a2.12,2.12,0,0,0,.73-3.21Z"/><g id="berries"><path class="cls-2" d="M37.49,21.49a5.71,5.71,0,0,0,3.84,5.39h0a5.31,5.31,0,0,0,.89.24,5.36,5.36,0,0,0,1,.1,6.24,6.24,0,0,0,1.06-.1l.14,0a4.92,4.92,0,0,0,.85-.26l.29-.12c.22-.1.43-.22.64-.34a5.91,5.91,0,0,0,1.27-1.07h0A5.68,5.68,0,0,0,49,21.49a5.73,5.73,0,0,0-11.46,0Z"/><path class="cls-2" d="M26,25.12a5.64,5.64,0,0,0,.93.09l.28,0h0A5.69,5.69,0,1,0,26,25.12Z"/><path class="cls-2" d="M37.28,11.46a5.73,5.73,0,1,0-5.73-5.73A5.74,5.74,0,0,0,37.28,11.46Z"/></g></g></g></g></svg>