<svg xmlns="http://www.w3.org/2000/svg" viewBox="0 0 55.81 75"><defs><style>.cls-1{fill:#fff;}.cls-2{fill:#fcd1a0;}.cls-3{fill:#6fbfeb;}.cls-4{fill:#cd6116;}.cls-5{fill:#da2b18;}.cls-6{fill:#fec92c;}</style></defs><g id="Слой_2" data-name="Слой 2"><g id="icons"><g id="nutcracker"><g id="face"><g id="head"><path class="cls-1" d="M45.49,45.85H10.16a19.94,19.94,0,1,0,35.33,0Z"/><path class="cls-2" d="M45.49,45.85H42.41a17.27,17.27,0,1,1-31.86,9.22,17.08,17.08,0,0,1,2.69-9.22H10.16a19.94,19.94,0,1,0,35.33,0Z"/></g><polygon id="nose" class="cls-2" points="29.82 58.97 25.83 58.97 27.16 45.43 28.49 45.43 29.82 58.97"/><g id="eyes"><circle class="cls-3" cx="17.97" cy="50.62" r="2.45"/><circle class="cls-3" cx="38.02" cy="50.62" r="2.45"/></g><path id="tash" class="cls-4" d="M33.39,55.07a6.49,6.49,0,0,0-5.48,3.34,6.49,6.49,0,0,0-5.48-3.34c-3.78,0-12.6,11.32-22.43,1.49,0,0,1.64,11,20.72,11,0,0,5.3-.46,7.19-2.34,1.88,1.88,7.19,2.34,7.19,2.34,19.08,0,20.71-11,20.71-11C46,66.39,37.16,55.07,33.39,55.07Z"/></g><g id="hat"><path class="cls-5" d="M27.82,35.66l-14.3,1.57V22.11l14.3,10.21,14.3-10.21V37.23Zm0,2.66-18.16,2v5.54H46V40.31Zm0-12.9,14.3-10.21V10.85s-3.68-2.21-14.2-2.21-14.4,2.21-14.4,2.21v4.36Z"/><circle class="cls-6" cx="27.82" cy="3.32" r="3.32"/></g></g></g></g></svg>