<svg xmlns="http://www.w3.org/2000/svg" viewBox="0 0 61.2 75"><defs><style>.cls-1{fill:#905d24;}.cls-2{fill:#fff;}.cls-3{fill:#8ebf22;}.cls-4{fill:#da2b18;}</style></defs><g id="Слой_2" data-name="Слой 2"><g id="icons"><g id="pudding"><path id="pudding-2" data-name="pudding" class="cls-1" d="M30.6,19C13.7,19,0,35.35,0,52.25V64.79S.43,75,30.82,75,61.2,64.79,61.2,64.79V52.25C61.2,35.35,47.5,19,30.6,19Z"/><path id="icing" class="cls-2" d="M30.6,24.27C19,24.27,8.25,34.51,5.77,46.9l.06.43c.4,3.19,1.86,5.79,3.25,5.77s2.77-2.41,3.05-5.31,1.13-5.31,1.87-5.37,1.54,2.52,1.76,5.74l.66,9.21c.22,3.22,1.84,5.85,3.58,5.85s3.41-2.63,3.71-5.84l1.15-12.47c.3-3.21,1.72-6,3.14-6.28S31,40.8,31.4,44l1.4,10.24c.44,3.2,2.21,5.75,3.94,5.68s3.57-2.73,4.1-5.91l.32-1.92c.53-3.18,2.39-5.78,4.15-5.78s3.69,2.44,4.31,5.42,2.14,5.43,3.37,5.43,2.49-2.63,2.8-5.84l.09-1C54.87,36.44,43.28,24.27,30.6,24.27Z"/><g id="leaves"><path class="cls-3" d="M27.61,20.6c-1.86-4,.09-10,.11-10.07a1.09,1.09,0,0,0-.12-.93,1.12,1.12,0,0,0-.79-.49c-.87-.1-3.37-.61-4.51-1.74s-1.51-3.48-1.57-4.3a1.09,1.09,0,0,0-.48-.83,1.14,1.14,0,0,0-.95-.13c-.08,0-8.07,2.61-11.69-1A1.09,1.09,0,0,0,6.07,2.63c3.62,3.62,1,11.62,1,11.7a1.09,1.09,0,0,0,.12.93,1.06,1.06,0,0,0,.8.49c.85.09,3.3.55,4.38,1.63S14,21,14.08,21.83a1.1,1.1,0,0,0,.5.8,1.07,1.07,0,0,0,.92.11c.07,0,5.56-1.78,9.5-.34Z"/><path class="cls-3" d="M40,17.78A7.09,7.09,0,0,1,40,13.94a6.21,6.21,0,0,1,2.78-2.35A.86.86,0,0,0,43.3,11a.89.89,0,0,0-.16-.74s-4.15-5.33-2.42-9A.87.87,0,0,0,39.15.5c-1.73,3.69-8.41,3.94-8.48,4a.83.83,0,0,0-.66.34.85.85,0,0,0-.15.74,6.85,6.85,0,0,1,0,3.71A7.16,7.16,0,0,1,27,11.72.86.86,0,0,0,26.67,13c0,.05,2.85,3.67,2.84,7,.22-.58,2.53.7,2.16,1.31,0,.06-.07.11-.1.16C34,19,39.08,18.85,39.13,18.85a.9.9,0,0,0,.67-.34A.87.87,0,0,0,40,17.78Z"/></g><g id="berries"><path class="cls-2" d="M36,18.05a2.62,2.62,0,1,1-2.62-2.61A2.62,2.62,0,0,1,36,18.05Z"/><path class="cls-4" d="M33.39,15.44a2.62,2.62,0,1,1-2.62,2.61,2.61,2.61,0,0,1,2.62-2.61m0-5.24a7.86,7.86,0,1,0,7.86,7.85,7.86,7.86,0,0,0-7.86-7.85Z"/><path class="cls-2" d="M27.77,21.51a2.62,2.62,0,1,1-2.62-2.62A2.62,2.62,0,0,1,27.77,21.51Z"/><path class="cls-4" d="M25.15,18.89a2.62,2.62,0,1,1-2.61,2.62,2.62,2.62,0,0,1,2.61-2.62m0-5.23A7.86,7.86,0,1,0,33,21.51a7.86,7.86,0,0,0-7.86-7.85Z"/></g></g></g></g></svg>