<svg xmlns="http://www.w3.org/2000/svg" viewBox="0 0 57.18 75"><defs><style>.cls-1{fill:#8ebf22;}.cls-2{fill:#da2b18;}</style></defs><g id="Слой_2" data-name="Слой 2"><g id="icons"><g id="Reef"><path class="cls-1" d="M57.18,28.59A28.59,28.59,0,1,0,7.86,48.28V43h0a6.2,6.2,0,0,1,2.19-4.47,8.22,8.22,0,0,1,4.54-2,16.08,16.08,0,1,1,27.9,0c4.19.5,6.73,3.56,6.73,6.42h0v5.26A28.46,28.46,0,0,0,57.18,28.59ZM7.83,30.06c-.53,2.15-2.7,2.15-3.23,0-2.15-.53-2.15-2.7,0-3.23.53-2.15,2.7-2.15,3.23,0C10,27.36,10,29.53,7.83,30.06Zm5.3-14.28c-.53,2.15-2.7,2.15-3.23,0-2.15-.53-2.15-2.7,0-3.23.53-2.15,2.7-2.15,3.23,0C15.28,13.08,15.28,15.25,13.13,15.78ZM30.21,7.87C29.68,10,27.5,10,27,7.87c-2.14-.53-2.14-2.7,0-3.23.53-2.15,2.71-2.15,3.24,0C32.36,5.17,32.36,7.34,30.21,7.87Zm17,7.91c-.54,2.15-2.71,2.15-3.24,0-2.15-.53-2.15-2.7,0-3.23.53-2.15,2.7-2.15,3.24,0C49.4,13.08,49.4,15.25,47.26,15.78Zm2.05,14.43c-2.15-.53-2.15-2.71,0-3.24.53-2.15,2.7-2.14,3.23,0,2.15.53,2.15,2.71,0,3.24C52,32.36,49.84,32.36,49.31,30.21Z"/><path class="cls-2" d="M46.42,43.6c0-.2,0-.39,0-.59a2.35,2.35,0,0,0,0-.26s0,0,0-.08a1.16,1.16,0,0,0,0-.18.45.45,0,0,0,0-.11.84.84,0,0,0-.05-.17l0-.12a1.3,1.3,0,0,0-.08-.17.67.67,0,0,0-.06-.12,1.62,1.62,0,0,0-.1-.18l-.07-.11-.12-.18-.09-.11L45.54,41l-.1-.11-.18-.18-.11-.09a2.11,2.11,0,0,0-.23-.19l-.09-.07a4.75,4.75,0,0,0-.77-.46l-.11,0-.33-.13-.17-.06-.3-.1-.21-.05-.31-.07-.23,0-.33,0-.26,0h-.59c-2.73,0-6.59,1.43-11.75,5.67l-.88.74L27.71,45c-5.16-4.24-9-5.64-11.75-5.67h-.59l-.26,0-.32,0-.24,0-.3.07L14,39.6l-.29.1-.19.06-.3.13-.14,0-.4.22,0,0-.33.22-.11.08-.21.18-.12.1-.16.17-.11.12-.14.16a1.13,1.13,0,0,0-.1.13l-.11.16a.57.57,0,0,0-.08.13,1,1,0,0,0-.1.17l-.06.12-.08.17a.61.61,0,0,1-.05.12.84.84,0,0,0-.05.17l0,.11a1.16,1.16,0,0,0,0,.18.19.19,0,0,1,0,.08,2.35,2.35,0,0,0,0,.26c0,.2,0,.39,0,.59a5.47,5.47,0,0,1,0-.59V54.8c0,4,4.86,4.59,9.51,4.23L14.44,71.45c-.25.53,0,.81.55.6l2.74-1a1.08,1.08,0,0,1,1.37.64l1,2.74c.2.55.57.56.82,0l7.57-16.24,5.95,16.34c.21.56.57.58.82,0L36.49,72a1.08,1.08,0,0,1,1.43-.52l2.63,1.23c.54.25.81,0,.61-.55L36.37,59c4.82.45,10.09,0,10.09-4.18V43A5.47,5.47,0,0,1,46.42,43.6ZM13.6,43.24c2.16-3.94,11.51,3.33,11.51,3.33S11.53,47,13.6,43.24Zm15,13.32A3.58,3.58,0,1,1,32.16,53,3.57,3.57,0,0,1,28.59,56.56Zm3.48-10s9.35-7.27,11.51-3.33C45.66,47,32.07,46.57,32.07,46.57Z"/></g></g></g></svg>