<svg xmlns="http://www.w3.org/2000/svg" viewBox="0 0 75.21 75"><defs><style>.cls-1{fill:#da2b18;}</style></defs><g id="Слой_2" data-name="Слой 2"><g id="icons"><path id="ribbon" class="cls-1" d="M75.12,8.91V7.67C75.12,2.5,64-9.25,37.61,13.5,11.19-9.25.09,2.5.09,7.67V8.91A9.45,9.45,0,0,1,0,7.69v24.8c0,8.43,10.23,9.65,20,8.89L7.82,67.53c-.52,1.12,0,1.69,1.17,1.27l5.76-2.09a2.26,2.26,0,0,1,2.89,1.35l2.09,5.75c.43,1.17,1.21,1.2,1.73.08L37.4,39.7,49.92,74.1c.43,1.17,1.2,1.2,1.73.08l2.59-5.55a2.25,2.25,0,0,1,3-1.09l5.55,2.59c1.12.52,1.69,0,1.27-1.17L54,41.28c10.14.95,21.23,0,21.23-8.79V7.69A9.45,9.45,0,0,1,75.12,8.91ZM6.06,8.15c4.54-8.28,24.23,7,24.23,7S1.69,16.13,6.06,8.15Zm31.55,28a7.52,7.52,0,1,1,7.52-7.52A7.53,7.53,0,0,1,37.61,36.19Zm7.31-21s19.69-15.29,24.23-7C73.52,16.13,44.92,15.16,44.92,15.16Z"/></g></g></svg>