<svg xmlns="http://www.w3.org/2000/svg" viewBox="0 0 46.01 75"><defs><style>.cls-1{fill:#b5e1fa;}.cls-2{fill:#fff;}.cls-3{fill:#c6c3c2;}.cls-4{fill:#da2b18;}</style></defs><g id="Слой_2" data-name="Слой 2"><g id="icons"><g id="snowman"><path id="snowman-2" data-name="snowman" class="cls-1" d="M35.84,42c.33.34,6.38,6.51,8.89,14.54,5.87-7.38-10.26-22.4-12.51-24.43a12.4,12.4,0,0,0,3.25-8.37,12.11,12.11,0,0,0-.9-4.56,4.53,4.53,0,0,1-3.38,1.48H14.54a4.14,4.14,0,0,1-3.11-1.33A12.25,12.25,0,0,0,13.75,32C12.1,33.42-4.53,47.78,1.2,56.28A40.24,40.24,0,0,1,10,42a1.18,1.18,0,0,1,1.68,1.67c-.1.1-8.68,8.87-9.24,18.53,0,.19,0,.39,0,.59s0,.68,0,1C2.67,68.71,5.18,75,16.71,75H29.15c11.36,0,14-6.11,14.24-11,0-.45,0-.91,0-1.36,0-.12,0-.24,0-.36-.5-9.72-9.15-18.53-9.24-18.63a1.18,1.18,0,0,1,0-1.67A1.2,1.2,0,0,1,35.84,42ZM16.74,25.65a1.78,1.78,0,1,1,1.78-1.78A1.77,1.77,0,0,1,16.74,25.65Zm6.06-.19a2.38,2.38,0,0,1,2.37,2.37,2.34,2.34,0,0,1-.3,1.12v0L22.8,32.57,20.74,29l0,0a2.4,2.4,0,0,1-.29-1.13A2.37,2.37,0,0,1,22.8,25.46ZM23,64.78a2.37,2.37,0,1,1,2.37-2.37A2.38,2.38,0,0,1,23,64.78Zm0-11a2.37,2.37,0,1,1,2.37-2.37A2.38,2.38,0,0,1,23,53.75Zm0-11a2.37,2.37,0,1,1,2.37-2.37A2.38,2.38,0,0,1,23,42.72Zm6.2-17.07A1.78,1.78,0,1,1,31,23.87,1.78,1.78,0,0,1,29.23,25.65Z"/><g id="hat"><path class="cls-2" d="M39.15,13.53a3.54,3.54,0,0,0-3.34,2.39,4.65,4.65,0,0,0-4.63-4.75H14.55c-2.63,0-4.35,2.13-4.35,4.76s1.72,4.76,4.35,4.76H31.18a4.59,4.59,0,0,0,4.44-3.46,3.54,3.54,0,1,0,3.53-3.7Z"/><path class="cls-3" d="M39.15,13.48a3.62,3.62,0,0,0-3.34,2.26,4.63,4.63,0,0,0-4.62-4.58H14.54c-2.64,0-4.37,2.13-4.37,4.77s1.73,4.76,4.37,4.76H31.19a4.58,4.58,0,0,0,4.4-3.27,3.59,3.59,0,1,0,3.56-3.94Zm-8,6.11H14.54c-1.93,0-3.27-1.5-3.27-3.66s1.34-3.67,3.27-3.67H31.19a3.56,3.56,0,0,1,3.54,3.67A3.56,3.56,0,0,1,31.19,19.59Zm8-.11a2.4,2.4,0,1,1,2.4-2.4A2.41,2.41,0,0,1,39.15,19.48Z"/><path class="cls-4" d="M10.17,15.91a.77.77,0,0,1,0-.15c0,.06,0,.11,0,.16ZM37.1,14.12C33.4,9,25.54-.92,20.66.07c-4.51.92-6,7.24-6.52,11.09a2,2,0,0,0-.23.06,4.21,4.21,0,0,1,.63-.06H31.19a4.63,4.63,0,0,1,4.62,4.58A3.68,3.68,0,0,1,37.1,14.12Z"/></g></g></g></g></svg>