<svg xmlns="http://www.w3.org/2000/svg" viewBox="0 0 72.74 75"><defs><style>.cls-1{fill:#fec92c;}</style></defs><g id="Слой_2" data-name="Слой 2"><g id="icons"><path id="star" class="cls-1" d="M1.36,31.05,17.7,43.8a8,8,0,0,1,2.53,7.88L14.09,72.39c-.78,2.63.35,3.41,2.51,1.71l16-12.54a6.71,6.71,0,0,1,7.86,0L56.5,74.1c2.14,1.7,3.27.92,2.49-1.71L52.74,51.61a7.93,7.93,0,0,1,2.49-7.86l16.16-12.7c2.16-1.7,1.67-3.09-1.08-3.09H50.61a7.16,7.16,0,0,1-6.42-4.77L37.81,2C37-.66,35.73-.66,35,2l-6.3,21.2A7.07,7.07,0,0,1,22.25,28H2.42C-.34,28-.8,29.34,1.36,31.05Z"/></g></g></svg>