<svg xmlns="http://www.w3.org/2000/svg" viewBox="0 0 53.06 75"><defs><style>.cls-1{fill:#da2b18;}.cls-2{fill:#fff;}.cls-3{fill:#c6c3c2;}</style></defs><g id="Слой_2" data-name="Слой 2"><g id="icons"><g id="stocking"><path class="cls-1" d="M32.43,23.88a8.27,8.27,0,0,0-11.67,0L6.66,38C1.73,42.9.47,47.18.05,51.3S1.79,61.52,4.86,64.87l1.88,2.06c3.07,3.35,9.71,7.94,12.62,8.07s6.85-4.34,7.33-7.08-2-6.23-2.05-8.46,2.63-6.7,5.84-9.91l8-8a8.29,8.29,0,0,0,0-11.68Z"/><path class="cls-2" d="M8,58.13a1.71,1.71,0,0,1-.48-.33,1.67,1.67,0,0,1,0-2.34,7.93,7.93,0,0,0,2.71-5.66,9.81,9.81,0,0,0-2.64-6.07A1.65,1.65,0,1,1,10,41.39a13.05,13.05,0,0,1,3.61,8.41,11.14,11.14,0,0,1-3.68,8A1.64,1.64,0,0,1,8,58.13Z"/><g id="top"><path class="cls-2" d="M47.71,42.83a7.49,7.49,0,0,1-10.6,0L19.46,25.18a7.5,7.5,0,0,1,0-10.61l3.15-3.14a7.49,7.49,0,0,1,10.6,0L50.86,29.08a7.49,7.49,0,0,1,0,10.6Z"/><path class="cls-2" d="M30.69,6.19c0,2.51-1,4.54-2.27,4.54s-2.26-2-2.26-4.54,1-4.54,2.26-4.54S30.69,3.68,30.69,6.19Z"/><path class="cls-3" d="M50.86,29.08,33.21,11.43a7.49,7.49,0,0,0-1.71-1.28,8.85,8.85,0,0,0,.84-4c0-2.83-1.06-5.15-2.7-5.92A2.89,2.89,0,0,0,28.42,0C26.15,0,24.5,2.61,24.5,6.19a9.09,9.09,0,0,0,.68,3.57,7.35,7.35,0,0,0-2.57,1.67l-3.15,3.14a7.5,7.5,0,0,0,0,10.61L37.11,42.83a7.5,7.5,0,0,0,10.6,0l3.15-3.15A7.49,7.49,0,0,0,50.86,29.08ZM28.42,3.49A5.09,5.09,0,0,1,29,6.19a5.09,5.09,0,0,1-.62,2.7,5.19,5.19,0,0,1-.62-2.7A5.19,5.19,0,0,1,28.42,3.49ZM48.53,37.35l-3.15,3.14a4.2,4.2,0,0,1-4.74.84,4.09,4.09,0,0,1-1.19-.84L21.79,22.84a4.21,4.21,0,0,1,0-5.93l3.15-3.15a4.22,4.22,0,0,1,4.74-.84,4.28,4.28,0,0,1,1.19.84L48.53,31.41a4.2,4.2,0,0,1,0,5.94Z"/></g></g></g></g></svg>