<svg xmlns="http://www.w3.org/2000/svg" viewBox="0 0 56.92 75"><defs><style>.cls-1{fill:#8ebf22;}.cls-2{fill:#fec92c;}</style></defs><g id="Слой_2" data-name="Слой 2"><g id="icons"><g id="tree"><path id="tree-2" data-name="tree" class="cls-1" d="M56.86,54.5c-.06.14-6.38,13-19.59,13.38l-.67,4.68a.85.85,0,0,1,0,.17A4.13,4.13,0,0,1,32.91,75H24a4.11,4.11,0,0,1-3.65-2.27.84.84,0,0,1-.05-.17l-.67-4.68C6.44,67.55.12,54.64.06,54.5a.58.58,0,0,1,.1-.66.6.6,0,0,1,.66-.14,11.85,11.85,0,0,0,4.44.92c4.7,0,7.84-3.32,9.07-4.9-5-.79-8.6-6.76-8.76-7a.59.59,0,0,1,0-.59.6.6,0,0,1,.52-.3,19.09,19.09,0,0,0,12-4.36c-6.65-.56-7.95-4.92-8-5.12a.58.58,0,0,1,.1-.51.59.59,0,0,1,.47-.24c9.14,0,17.17-17.27,17.25-17.44a.62.62,0,0,1,1.08,0c.08.17,8.1,17.44,17.25,17.44a.59.59,0,0,1,.47.24.58.58,0,0,1,.1.51c-.06.2-1.36,4.55-8,5.12a19.11,19.11,0,0,0,12,4.36.6.6,0,0,1,.51.89c-.16.27-3.72,6.24-8.76,7,1.23,1.58,4.37,4.9,9.07,4.9a11.89,11.89,0,0,0,4.44-.92.6.6,0,0,1,.66.14A.61.61,0,0,1,56.86,54.5Z"/><path id="star" class="cls-2" d="M25.51,6.92a1.28,1.28,0,0,1,.4,1.25l-1,3.27c-.13.42,0,.55.39.28l2.52-2a1.07,1.07,0,0,1,1.25,0l2.54,2c.34.27.52.14.4-.28l-1-3.28a1.23,1.23,0,0,1,.39-1.24l2.55-2c.35-.27.27-.49-.17-.49H30.71a1.12,1.12,0,0,1-1-.75l-1-3.36c-.13-.41-.33-.41-.46,0l-1,3.35a1.13,1.13,0,0,1-1,.75H23.09c-.44,0-.51.22-.17.49Z"/></g></g></g></svg>